<svg width="48" height="48" viewBox="0 0 48 48" fill="none" xmlns="http://www.w3.org/2000/svg">
<rect width="48" height="48" rx="24" fill="url(#paint0_linear_2218_13181)"/>
<path fill-rule="evenodd" clip-rule="evenodd" d="M24 23C26.2091 23 28 21.2091 28 19C28 16.7909 26.2091 15 24 15C21.7909 15 20 16.7909 20 19C20 21.2091 21.7909 23 24 23ZM24 33C27.866 33 31 31.2091 31 29C31 26.7909 27.866 25 24 25C20.134 25 17 26.7909 17 29C17 31.2091 20.134 33 24 33Z" fill="#A056A2"/>
<defs>
<linearGradient id="paint0_linear_2218_13181" x1="41" y1="7" x2="6.5" y2="39.5" gradientUnits="userSpaceOnUse">
<stop stop-color="#A056A2" stop-opacity="0.15"/>
<stop offset="1" stop-color="#A056A2" stop-opacity="0.6"/>
</linearGradient>
</defs>
</svg>
